<svg width="215" height="319" viewBox="0 0 215 319" fill="none" xmlns="http://www.w3.org/2000/svg">
<g opacity="0.4">
<path d="M124.52 205.755C92.04 236.592 48.54 250.947 -5.98 248.82C-60.5 246.693 -80.8 221.705 -66.88 173.855C-52.96 126.005 -23.38 88.2567 21.86 60.61C67.1 32.9633 103.64 42.5333 131.48 89.32C159.32 136.107 157 174.918 124.52 205.755Z" fill="#707070"/>
<path d="M108.582 180.873C76.1016 211.71 32.6016 226.065 -21.9184 223.938C-76.4384 221.811 -96.7384 196.823 -82.8184 148.973C-68.8984 101.123 -39.3184 63.3747 5.9216 35.728C51.1616 8.08134 87.7016 17.6513 115.542 64.438C143.382 111.225 141.062 150.036 108.582 180.873Z" stroke="#4B4B4B"/>
</g>
</svg>
